<?xml version="1.0" encoding="UTF-8" standalone="no"?>
<!-- Created with Inkscape (http://www.inkscape.org/) -->

<svg
   xmlns:dc="http://purl.org/dc/elements/1.1/"
   xmlns:cc="http://creativecommons.org/ns#"
   xmlns:rdf="http://www.w3.org/1999/02/22-rdf-syntax-ns#"
   xmlns:svg="http://www.w3.org/2000/svg"
   xmlns="http://www.w3.org/2000/svg"
   xmlns:sodipodi="http://sodipodi.sourceforge.net/DTD/sodipodi-0.dtd"
   xmlns:inkscape="http://www.inkscape.org/namespaces/inkscape"
   version="1.0"
   width="990"
   height="765"
   id="svg2403"
   xml:space="preserve"
   inkscape:version="0.91 r13725"
   sodipodi:docname="swoosh.svg"><metadata
     id="metadata44"><rdf:RDF><cc:Work
         rdf:about=""><dc:format>image/svg+xml</dc:format><dc:type
           rdf:resource="http://purl.org/dc/dcmitype/StillImage" /><dc:title /></cc:Work></rdf:RDF></metadata><sodipodi:namedview
     pagecolor="#ffffff"
     bordercolor="#666666"
     borderopacity="1"
     objecttolerance="10"
     gridtolerance="10"
     guidetolerance="10"
     inkscape:pageopacity="0"
     inkscape:pageshadow="2"
     inkscape:window-width="1536"
     inkscape:window-height="801"
     id="namedview42"
     showgrid="false"
     inkscape:zoom="0.82281516"
     inkscape:cx="239.36108"
     inkscape:cy="330.88751"
     inkscape:window-x="-8"
     inkscape:window-y="-8"
     inkscape:window-maximized="1"
     inkscape:current-layer="g2412" /><defs
     id="defs2406" /><g
     transform="matrix(0,1.25,1.25,0,0,0)"
     id="g2412"><g
       id="g4170"
       transform="translate(-6.8059028,18.473165)"
       style="fill:#eeb211;fill-opacity:1"><path
         style="fill:#eeb211;fill-opacity:1;fill-rule:nonzero;stroke:none"
         d="m 193.449,182.227 c -1.28839,9.08053 -4.75629,17.19684 -7.053,26.877 -3.38559,9.67617 -5.29812,24.52759 -9.874,36.783 -1.30154,11.24857 -4.90226,20.93046 -6.586,29.71 -3.96446,14.87748 -7.93078,32.77455 -11.33522,48.92648 -2.5713,14.4271 -7.67866,28.46268 -14.05778,44.44752 -2.62865,7.30054 -6.02189,14.87837 -10.814,19.335 -8.96392,-4.82929 -11.81633,-26.14581 -16.57787,-38.90675 -1.06186,-16.44625 -2.82277,-32.05564 -5.05426,-47.39475 -0.9211,-21.39074 0.39323,-40.20527 -3.29387,-60.3625 -4.00063,-14.53425 2.21845,-33.69871 -5.168,-46.216 -7.753138,1.60666 -9.313474,13.67536 -11.759,20.277 -4.203116,6.86468 -6.428655,18.43395 -9.873,26.413 -3.590895,19.38568 16.035726,4.28763 11.57775,-6.95813 -0.521863,-11.05919 8.08382,-48.16583 8.34848,-16.85059 -2.826369,23.22422 -1.25049,47.39915 -2.99923,68.13372 -0.05349,29.45121 -1.611645,59.46706 5.646,87.244 3.89649,17.50707 8.81596,34.57385 22.572,47.159 7.92024,6.87346 22.10695,-1.62505 31.501,-5.656 8.23045,-2.54957 12.35006,-16.83375 10.1135,-23.347 0.72904,-6.72001 1.96616,-11.20833 2.1135,-19.15508 2.54554,-12.39727 6.47768,-22.2715 -0.35188,-31.36367 0.39016,-7.59234 1.57989,-13.65394 1.35447,-22.18803 1.54741,-10.95716 2.13873,-20.00782 5.81691,-30.56884 0.30541,-2.96694 1.67536,-12.27594 3.9945,-16.5169 0.72794,-7.91735 3.05115,-14.74806 3.65025,-22.8601 5.60159,-11.65529 2.8384,-23.7035 7.28725,-36.31013 1.92598,-13.02385 4.6153,-30.98226 9.7605,-41.50025 0.49715,-8.7234 3.26328,-17.0005 6.2865,-27.23387 3.05454,-16.23813 -4.21443,0.1675 -2.87963,-1.23826 -3.16126,14.23879 -7.94427,25.19858 -12.34587,39.32113 z"
         id="path2464"
         inkscape:connector-curvature="0" /><path
         style="fill:#eeb211;fill-opacity:1;fill-rule:nonzero;stroke:none"
         d="m 212.262,126.579 c -11.11191,14.55706 8.94783,-0.59697 2.347,-7.074 -0.12881,2.06179 -5.72475,5.13684 -2.347,7.074 z"
         id="path2466"
         inkscape:connector-curvature="0" /><path
         style="fill:#eeb211;fill-opacity:1;fill-rule:nonzero;stroke:none"
         d="m 246.12,70.461 c 1.3129,5.001614 15.12889,-10.597155 0.941,-1.891 L 246.41313,69.33775 246.12,70.461 Z"
         id="path2468"
         inkscape:connector-curvature="0" /><path
         style="fill:#eeb211;fill-opacity:1;fill-rule:nonzero;stroke:none"
         d="m 464.78,564.205 c -3.18561,0.4364 1.64925,-2.58618 0,0 z"
         id="path2470"
         inkscape:connector-curvature="0" /><path
         style="fill:#eeb211;fill-opacity:1;fill-rule:nonzero;stroke:none"
         d="m 465.146,563.257 c 0.99007,-1.2326 0.6309,0.0941 0,0 z"
         id="path2472"
         inkscape:connector-curvature="0" /><path
         style="fill:#eeb211;fill-opacity:1;fill-rule:nonzero;stroke:none"
         d="m 460.08,657.58 c 1.91424,-10.97805 7.56927,-24.06132 5.178,-35.14852 1.74313,-20.19163 -6.86561,5.78187 -7.058,12.98052 -4.08422,11.22994 -1.21665,-17.87043 1.58463,-23.57963 3.92867,-9.5979 -1.70321,-13.16095 4.05537,-21.69337 -1.40401,-7.17906 1.2758,-16.8084 1.886,-25.934 0.84511,-10.10054 4.747,-26.63054 4.70063,-40.79687 2.97875,-48.19519 1.56713,-98.26576 -5.16863,-145.00913 -4.30368,-25.21511 -8.97959,-50.95805 -15.52,-76.863 -1.25708,-12.80647 -5.96038,-27.82478 -7.93613,-39.3215 -5.60536,-17.65016 -12.17108,-35.24751 -15.57587,-52.1675 -4.86559,-9.44865 -7.65361,-21.41524 -11.292,-30.179 -6.45319,-10.4678 -9.64165,-23.99599 -16.10338,-33.18988 C 391.53924,131.82188 382.14848,115.74302 369.326,103.473 365.35508,97.375363 358.10368,92.263389 354.274,87.91 343.6499,79.385729 334.66091,75.336631 321.36,70.461 c -7.00833,-4.630031 -21.38252,-6.342025 -28.686,-8.49 -13.65565,-0.691974 -25.12385,4.240929 -20.693,-3.771 -9.78743,8.070044 -20.36309,9.408053 -10.63875,0.7665 -15.95794,5.355329 3.70894,-8.152413 9.23175,-9.7255 6.86705,-6.098517 18.09477,-7.57368 26.56687,-10.022625 20.81641,-0.440032 45.98107,2.717915 62.30613,13.319625 8.91368,2.742165 16.04281,8.094428 23.046,13.204 9.59794,5.088954 16.94434,12.56969 24.92,19.808 7.35812,6.473175 15.20472,15.8817 22.335,25.76063 12.2306,15.45807 19.43915,32.94895 28.924,49.69137 8.92864,22.47151 16.41725,39.88359 22.573,63.665 6.64659,20.70907 12.79443,42.87613 15.514,65.076 4.51587,21.96584 6.74475,43.39407 9.406,65.55 1.20045,31.48601 3.18232,63.72641 0.41137,95.73262 -1.25744,32.7622 -6.24779,62.85916 -13.88006,94.22887 -2.08366,14.92199 -7.4514,27.54115 -9.39394,39.22226 -2.48515,10.6916 -5.14248,22.20759 -7.1135,32.60163 -5.21237,7.76154 -7.27031,17.52778 -7.64787,24.45962 -3.27774,2.44011 -3.46191,22.63689 -8.461,16.042 z M 279.98,58.2 c -3.30451,-4.806746 -6.66116,2.310088 0,0 z"
         id="path2474"
         inkscape:connector-curvature="0" /><path
         style="fill:#eeb211;fill-opacity:1;fill-rule:nonzero;stroke:none"
         d="m 453.032,652.855 c -0.17055,17.55332 6.8304,-20.53412 1.407,-4.713 -1.67975,1.32261 -0.1476,3.15858 -1.407,4.713 z"
         id="path2476"
         inkscape:connector-curvature="0" /><path
         style="fill:#eeb211;fill-opacity:1;fill-rule:nonzero;stroke:none"
         d="m 449.738,668.424 c -1.64337,6.45951 -9.63053,30.80486 -3.2315,30.12225 4.45575,-14.00905 5.37957,-23.68088 7.6405,-39.0295 -2.64923,1.44848 -4.05559,6.20931 -4.409,8.90725 z"
         id="path2478"
         inkscape:connector-curvature="0" /><path
         style="fill:#eeb211;fill-opacity:1;fill-rule:nonzero;stroke:none"
         d="m 458.672,668.424 c -1.88634,15.70782 4.27007,5.11323 4.233,-5.667 0.93878,-6.59746 -5.8195,3.52618 -4.233,5.667 z"
         id="path2480"
         inkscape:connector-curvature="0" /><path
         style="fill:#eeb211;fill-opacity:1;fill-rule:nonzero;stroke:none"
         d="m 458.672,682.566 c -1.20923,-9.4133 -4.06766,10.86104 0,0 z"
         id="path2482"
         inkscape:connector-curvature="0" /><path
         style="fill:#eeb211;fill-opacity:1;fill-rule:nonzero;stroke:none"
         d="m 443.62,710.864 c 0.27463,-14.13176 -3.25251,9.67352 -6.108,11.781 -1.16116,6.95711 -7.79718,23.61115 0,16.981 2.14049,-12.41382 3.25932,-16.41452 6.108,-28.762 z"
         id="path2484"
         inkscape:connector-curvature="0" /><path
         style="fill:#eeb211;fill-opacity:1;fill-rule:nonzero;stroke:none"
         d="m 430.926,749.532 c 4.23504,7.39329 4.10342,-11.22833 0,0 z"
         id="path2486"
         inkscape:connector-curvature="0" /></g></g></svg>